<?xml version="1.0" standalone="no"?>
<!DOCTYPE svg PUBLIC "-//W3C//DTD SVG 1.0//EN" "http://www.w3.org/TR/2001/REC-SVG-20010904/DTD/svg10.dtd">
<svg xmlns="http://www.w3.org/2000/svg" xmlns:xlink="http://www.w3.org/1999/xlink" id="body_1" width="61" height="46">

<g transform="matrix(1.2777779 0 0 1.2777779 7.5000014 -0)">
	<g>
        <path d="M17.996094 28.847656C 18.480469 28.847656 18.878906 29.21875 18.925781 29.691406L18.925781 29.691406L18.933594 29.785156L18.933594 32.066406C 18.933594 32.58203 18.511719 33.003906 17.996094 33.003906C 17.507812 33.003906 17.109375 32.632812 17.0625 32.160156L17.0625 32.160156L17.058594 32.066406L17.058594 29.785156C 17.058594 29.269531 17.476562 28.847656 17.996094 28.847656zM26.921875 25.574219L26.996094 25.640625L28.609375 27.253906C 28.972656 27.617188 28.972656 28.210938 28.609375 28.578125C 28.265625 28.921875 27.726562 28.941406 27.359375 28.648438L27.359375 28.648438L27.28125 28.578125L25.671875 26.96875C 25.304688 26.601562 25.304688 26.007812 25.671875 25.640625C 26.011719 25.300781 26.554688 25.277344 26.921875 25.574219zM10.316406 25.640625C 10.65625 25.984375 10.679688 26.523438 10.382812 26.890625L10.382812 26.890625L10.316406 26.96875L8.707031 28.578125C 8.339844 28.945312 7.746094 28.945312 7.378906 28.578125C 7.039062 28.238281 7.015625 27.695312 7.3125 27.328125L7.3125 27.328125L7.378906 27.253906L8.992188 25.640625C 9.355469 25.277344 9.949219 25.277344 10.316406 25.640625zM18 9.808594C 22.523438 9.808594 26.191406 13.476562 26.191406 18C 26.191406 22.523438 22.523438 26.191406 18 26.191406C 13.476562 26.191406 9.808594 22.523438 9.808594 18C 9.808594 13.476562 13.476562 9.808594 18 9.808594zM18 11.683594C 14.511719 11.683594 11.683594 14.511719 11.683594 18C 11.683594 21.488281 14.511719 24.316406 18 24.316406C 21.488281 24.316406 24.316406 21.488281 24.316406 18C 24.316406 14.511719 21.488281 11.683594 18 11.683594zM32.046875 17.089844C 32.566406 17.089844 32.984375 17.511719 32.984375 18.027344C 32.984375 18.511719 32.617188 18.914062 32.14453 18.960938L32.14453 18.960938L32.046875 18.964844L29.769531 18.964844C 29.253906 18.964844 28.832031 18.546875 28.832031 18.027344C 28.832031 17.542969 29.203125 17.144531 29.675781 17.09375L29.675781 17.09375L29.769531 17.089844zM6.230469 17.046875C 6.746094 17.046875 7.167969 17.464844 7.167969 17.984375C 7.167969 18.46875 6.796875 18.867188 6.324219 18.917969L6.324219 18.917969L6.230469 18.921875L3.953125 18.921875C 3.433594 18.921875 3.015625 18.5 3.015625 17.984375C 3.015625 17.5 3.382812 17.097656 3.855469 17.050781L3.855469 17.050781L3.953125 17.046875zM8.628906 7.351562L8.707031 7.421875L10.316406 9.03125C 10.683594 9.398438 10.683594 9.992188 10.316406 10.359375C 9.972656 10.699219 9.433594 10.722656 9.066406 10.425781L9.066406 10.425781L8.992188 10.359375L7.378906 8.746094C 7.011719 8.382812 7.011719 7.789062 7.378906 7.421875C 7.722656 7.078125 8.261719 7.058594 8.628906 7.351562zM28.609375 7.421875C 28.949219 7.761719 28.972656 8.304688 28.675781 8.671875L28.675781 8.671875L28.609375 8.746094L26.996094 10.359375C 26.632812 10.722656 26.039062 10.722656 25.671875 10.359375C 25.328125 10.015625 25.308594 9.476562 25.601562 9.109375L25.601562 9.109375L25.671875 9.03125L27.28125 7.421875C 27.648438 7.054688 28.242188 7.054688 28.609375 7.421875zM18 2.996094C 18.484375 2.996094 18.886719 3.367188 18.933594 3.839844L18.933594 3.839844L18.9375 3.933594L18.9375 6.214844C 18.9375 6.730469 18.519531 7.152344 18 7.152344C 17.515625 7.152344 17.117188 6.78125 17.066406 6.308594L17.066406 6.308594L17.0625 6.214844L17.0625 3.933594C 17.0625 3.417969 17.484375 2.996094 18 2.996094z" stroke="none" fill="#212121" fill-rule="nonzero" />
	</g>
</g>
</svg>