<?xml version="1.0" standalone="no"?>
<!DOCTYPE svg PUBLIC "-//W3C//DTD SVG 1.0//EN" "http://www.w3.org/TR/2001/REC-SVG-20010904/DTD/svg10.dtd">
<svg xmlns="http://www.w3.org/2000/svg" xmlns:xlink="http://www.w3.org/1999/xlink" id="body_1" width="31" height="23">

<g transform="matrix(0.34065935 0 0 0.34065935 -0 1.4505495)">
	<g>
        <path d="M63.898438 22.316406C 63.34375 22.59375 62.785156 22.898438 62.23047 23.21875C 60.566406 24.203125 58.929688 25.402344 57.25 26.78125L57.25 26.78125L53.67578 22.652344C 54.910156 21.496094 56.246094 20.445312 57.664062 19.511719C 58.796875 18.765625 59.976562 18.101562 61.195312 17.535156C 61.683594 17.289062 62.171875 17.058594 62.671875 16.84375C 60.316406 12.628906 56.92578 9.609375 53.085938 7.746094C 49.246094 5.890625 44.945312 5.175781 40.757812 5.585938C 36.597656 5.988281 32.558594 7.515625 29.222656 10.132812C 25.359375 13.152344 22.425781 17.671875 21.296875 23.65625L21.296875 23.65625L20.941406 25.53125L19.09375 25.859375C 17.285156 26.179688 15.667969 26.617188 14.25 27.175781C 12.875 27.714844 11.648438 28.378906 10.578125 29.160156C 9.722656 29.785156 8.984375 30.488281 8.355469 31.25C 6.414062 33.597656 5.511719 36.54297 5.53125 39.523438C 5.554688 42.55078 6.53125 45.609375 8.332031 48.121094C 9.003906 49.054688 9.78125 49.910156 10.667969 50.65625C 11.566406 51.410156 12.578125 52.035156 13.71875 52.503906C 14.847656 52.976562 16.09375 53.3125 17.476562 53.503906L17.476562 53.503906L71.0625 53.503906C 73.671875 52.871094 75.97656 52.01172 77.93359 50.910156C 79.875 49.8125 81.46484 48.48047 82.65234 46.875C 84.5 44.39453 85.40625 40.882812 85.44531 37.28125C 85.48828 33.5 84.57422 29.703125 82.79297 26.945312C 82.28516 26.148438 81.72266 25.433594 81.13281 24.792969C 78.46484 21.890625 75.08203 20.625 71.56641 20.601562C 69.03125 20.578125 66.39453 21.199219 63.898438 22.316406zM68.06641 15.398438C 69.24609 15.210938 70.42969 15.113281 71.60156 15.128906C 76.56641 15.164062 81.35156 16.957031 85.12109 21.054688C 85.91016 21.914062 86.65625 22.882812 87.359375 23.964844C 89.72266 27.632812 90.93359 32.53125 90.88281 37.32422C 90.828125 42.03125 89.57422 46.710938 87.00391 50.15625C 85.328125 52.402344 83.17578 54.234375 80.59766 55.691406C 78.11719 57.089844 75.22266 58.15625 71.97266 58.91797L71.97266 58.91797L71.36719 58.992188L17.386719 58.992188L17.046875 58.960938C 15.074219 58.710938 13.289062 58.23828 11.664062 57.5625C 9.988281 56.859375 8.503906 55.95703 7.195312 54.85547C 5.953125 53.8125 4.867188 52.625 3.945312 51.335938C 1.476562 47.90625 0.148438 43.714844 0.117188 39.539062C 0.0898438 35.320312 1.390625 31.121094 4.195312 27.722656C 5.105469 26.617188 6.175781 25.605469 7.402344 24.710938C 8.828125 23.664062 10.460938 22.785156 12.304688 22.0625C 13.578125 21.5625 14.9375 21.144531 16.367188 20.808594C 17.992188 14.292969 21.457031 9.273438 25.910156 5.792969C 30.078125 2.535156 35.09375 0.632812 40.253906 0.132812C 45.398438 -0.367188 50.683594 0.515625 55.433594 2.820312C 60.61328 5.332031 65.13281 9.515625 68.06641 15.398438z" stroke="none" fill="#000000" fill-rule="nonzero" />
	</g>
</g>
</svg>