<?xml version="1.0" standalone="no"?>
<!DOCTYPE svg PUBLIC "-//W3C//DTD SVG 1.0//EN" "http://www.w3.org/TR/2001/REC-SVG-20010904/DTD/svg10.dtd">
<svg xmlns="http://www.w3.org/2000/svg" xmlns:xlink="http://www.w3.org/1999/xlink" id="body_1" width="31" height="23">

<g transform="matrix(0.28048784 0 0 0.28048784 2.7378044 -0)">
	<g>
        <path d="M17.753906 53.38672C 19.234375 53.57422 20.285156 54.941406 20.097656 56.4375C 19.914062 57.929688 18.558594 58.98828 17.074219 58.80078C 15.101562 58.546875 13.316406 58.078125 11.695312 57.402344C 10.019531 56.703125 8.535156 55.804688 7.230469 54.703125C 5.988281 53.664062 4.90625 52.48047 3.984375 51.195312C 1.519531 47.773438 0.1875 43.59375 0.160156 39.429688C 0.128906 35.222656 1.429688 31.035156 4.234375 27.644531C 5.140625 26.546875 6.210938 25.535156 7.4375 24.640625C 8.859375 23.601562 10.492188 22.722656 12.335938 22.003906C 13.605469 21.503906 14.964844 21.085938 16.394531 20.753906C 18.019531 14.253906 21.480469 9.25 25.929688 5.777344C 30.089844 2.527344 35.101562 0.632812 40.26172 0.132812C 45.398438 -0.363281 50.679688 0.511719 55.42578 2.8125C 60.60547 5.316406 65.12109 9.488281 68.05078 15.355469C 69.234375 15.167969 70.41406 15.070312 71.58594 15.085938C 76.546875 15.117188 81.328125 16.910156 85.08984 21C 85.88281 21.851562 86.625 22.820312 87.32031 23.898438C 89.67969 27.554688 90.890625 32.441406 90.83984 37.222656C 90.78906 41.914062 89.53516 46.585938 86.96484 50.027344C 85.28906 52.265625 83.14453 54.09375 80.56641 55.54297C 78.08984 56.941406 75.19531 58.003906 71.94922 58.765625C 70.48828 59.097656 69.03516 58.183594 68.703125 56.710938C 68.37109 55.23828 69.27734 53.773438 70.73828 53.441406C 73.47656 52.80078 75.88281 51.921875 77.91016 50.777344C 79.85156 49.683594 81.4375 48.35547 82.625 46.753906C 84.47266 44.277344 85.37891 40.777344 85.41797 37.183594C 85.46094 33.414062 84.546875 29.632812 82.765625 26.878906C 82.25781 26.089844 81.69531 25.371094 81.10547 24.730469C 78.44141 21.839844 75.0625 20.574219 71.55078 20.550781C 68.99609 20.539062 66.37109 21.15625 63.867188 22.269531C 63.3125 22.542969 62.76172 22.84375 62.20703 23.167969C 60.546875 24.152344 58.910156 25.347656 57.234375 26.722656L57.234375 26.722656L53.660156 22.605469C 54.89453 21.453125 56.23047 20.402344 57.648438 19.472656C 58.777344 18.730469 59.95703 18.074219 61.16797 17.503906C 61.652344 17.257812 62.148438 17.027344 62.64453 16.8125C 60.289062 12.609375 56.902344 9.597656 53.0625 7.742188C 49.226562 5.890625 44.933594 5.175781 40.746094 5.585938C 36.59375 5.984375 32.554688 7.511719 29.21875 10.121094C 25.359375 13.140625 22.429688 17.636719 21.300781 23.609375L21.300781 23.609375L20.949219 25.472656L19.101562 25.800781C 17.296875 26.121094 15.679688 26.558594 14.261719 27.117188C 12.890625 27.652344 11.664062 28.316406 10.59375 29.09375C 9.738281 29.71875 9 30.417969 8.375 31.175781C 6.433594 33.51953 5.53125 36.45703 5.554688 39.429688C 5.578125 42.44922 6.550781 45.5 8.351562 48.003906C 9.023438 48.933594 9.796875 49.789062 10.683594 50.53125C 11.582031 51.285156 12.59375 51.90625 13.730469 52.375C 14.941406 52.851562 16.277344 53.203125 17.753906 53.38672zM41.210938 59.3125C 42.828125 66.875 47.683594 70.65234 47.683594 74.4375C 47.683594 78.22266 46.066406 82 41.210938 82C 36.35547 82 34.742188 78.22266 34.742188 74.4375C 34.742188 70.66016 39.589844 66.875 41.210938 59.3125zM55.57422 39.34375C 57.1875 47.55078 62.046875 51.65625 62.046875 55.757812C 62.046875 59.86328 60.429688 63.96875 55.57422 63.96875C 50.71875 63.96875 49.101562 59.86328 49.101562 55.757812C 49.101562 51.65625 53.95703 47.55078 55.57422 39.34375zM33.914062 38.546875C 35.078125 43.98047 38.570312 46.703125 38.570312 49.42578C 38.570312 52.14453 37.40625 54.859375 33.914062 54.859375C 30.421875 54.859375 29.257812 52.13672 29.257812 49.42578C 29.257812 46.703125 32.75 43.98047 33.914062 38.546875z" stroke="none" fill="#000000" fill-rule="nonzero" />
	</g>
</g>
</svg>