<?xml version="1.0" standalone="no"?>
<!DOCTYPE svg PUBLIC "-//W3C//DTD SVG 1.0//EN" "http://www.w3.org/TR/2001/REC-SVG-20010904/DTD/svg10.dtd">
<svg xmlns="http://www.w3.org/2000/svg" xmlns:xlink="http://www.w3.org/1999/xlink" id="body_1" width="31" height="23">

<g transform="matrix(0.07958478 0 0 0.07958478 3.9999998 -0)">
	<g>
        <path d="M93.51172 194.2539C 89.36719 194.2539 86.01172 197.61328 86.01172 201.7539L86.01172 201.7539L86.01172 234.7461C 86.01172 238.88672 89.36719 242.2461 93.51172 242.2461C 97.65234 242.2461 101.00781 238.88672 101.00781 234.7461L101.00781 234.7461L101.00781 201.7539C 101.00781 197.60938 97.65234 194.2539 93.51172 194.2539z" stroke="none" fill="#000000" fill-rule="nonzero" />
        <path d="M93.51172 146.26172C 89.36719 146.26172 86.01172 149.6211 86.01172 153.76172L86.01172 153.76172L86.01172 178.50781C 86.01172 182.64844 89.36719 186.0039 93.51172 186.0039C 97.65234 186.0039 101.00781 182.64844 101.00781 178.50781L101.00781 178.50781L101.00781 153.76172C 101.00781 149.6211 97.65234 146.26172 93.51172 146.26172z" stroke="none" fill="#000000" fill-rule="nonzero" />
        <path d="M93.51172 252.74219C 89.36719 252.74219 86.01172 256.10156 86.01172 260.2422L86.01172 260.2422L86.01172 269.98828C 86.01172 274.1289 89.36719 277.48828 93.51172 277.48828C 97.65234 277.48828 101.00781 274.1289 101.00781 269.98828L101.00781 269.98828L101.00781 260.2422C 101.00781 256.10156 97.65234 252.74219 93.51172 252.74219z" stroke="none" fill="#000000" fill-rule="nonzero" />
        <path d="M160.2461 179.25781C 156.10547 179.25781 152.75 182.61328 152.75 186.7539L152.75 186.7539L152.75 213.75C 152.75 217.89062 156.10547 221.25 160.2461 221.25C 164.39062 221.25 167.7461 217.89062 167.7461 213.75L167.7461 213.75L167.7461 186.7539C 167.7461 182.61328 164.39062 179.25781 160.2461 179.25781z" stroke="none" fill="#000000" fill-rule="nonzero" />
        <path d="M160.2461 230.9961C 156.10547 230.9961 152.75 234.35547 152.75 238.4961L152.75 238.4961L152.75 269.98828C 152.75 274.1289 156.10547 277.48828 160.2461 277.48828C 164.39062 277.48828 167.7461 274.1289 167.7461 269.98828L167.7461 269.98828L167.7461 238.4961C 167.7461 234.35547 164.39062 230.9961 160.2461 230.9961z" stroke="none" fill="#000000" fill-rule="nonzero" />
        <path d="M160.2461 144.76172C 156.10547 144.76172 152.75 148.1211 152.75 152.26172L152.75 152.26172L152.75 162.01172C 152.75 166.15234 156.10547 169.50781 160.2461 169.50781C 164.39062 169.50781 167.7461 166.15234 167.7461 162.01172L167.7461 162.01172L167.7461 152.26172C 167.7461 148.1211 164.39062 144.76172 160.2461 144.76172z" stroke="none" fill="#000000" fill-rule="nonzero" />
        <path d="M193.99219 145.51172C 189.84766 145.51172 186.49219 148.8711 186.49219 153.01172L186.49219 153.01172L186.49219 162.76172C 186.49219 166.90234 189.84766 170.25781 193.99219 170.25781C 198.13281 170.25781 201.48828 166.90234 201.48828 162.76172L201.48828 162.76172L201.48828 153.01172C 201.48828 148.8711 198.13281 145.51172 193.99219 145.51172z" stroke="none" fill="#000000" fill-rule="nonzero" />
        <path d="M193.99219 180.75781C 189.84766 180.75781 186.49219 184.11328 186.49219 188.2539L186.49219 188.2539L186.49219 198.0039C 186.49219 202.14453 189.84766 205.5039 193.99219 205.5039C 198.13281 205.5039 201.48828 202.14453 201.48828 198.0039L201.48828 198.0039L201.48828 188.2539C 201.48828 184.11328 198.13281 180.75781 193.99219 180.75781z" stroke="none" fill="#000000" fill-rule="nonzero" />
        <path d="M193.99219 217.5C 189.84766 217.5 186.49219 220.85938 186.49219 225L186.49219 225L186.49219 234.7461C 186.49219 238.88672 189.84766 242.2461 193.99219 242.2461C 198.13281 242.2461 201.48828 238.88672 201.48828 234.7461L201.48828 234.7461L201.48828 225C 201.48828 220.85547 198.13281 217.5 193.99219 217.5z" stroke="none" fill="#000000" fill-rule="nonzero" />
        <path d="M193.99219 252.74219C 189.84766 252.74219 186.49219 256.10156 186.49219 260.2422L186.49219 260.2422L186.49219 269.98828C 186.49219 274.1289 189.84766 277.48828 193.99219 277.48828C 198.13281 277.48828 201.48828 274.1289 201.48828 269.98828L201.48828 269.98828L201.48828 260.2422C 201.48828 256.10156 198.13281 252.74219 193.99219 252.74219z" stroke="none" fill="#000000" fill-rule="nonzero" />
        <path d="M127.25391 145.51172C 123.11328 145.51172 119.75391 148.8711 119.75391 153.01172L119.75391 153.01172L119.75391 162.76172C 119.75391 166.90234 123.11328 170.25781 127.25391 170.25781C 131.39453 170.25781 134.7539 166.90234 134.7539 162.76172L134.7539 162.76172L134.7539 153.01172C 134.7539 148.8711 131.39453 145.51172 127.25391 145.51172z" stroke="none" fill="#000000" fill-rule="nonzero" />
        <path d="M127.25391 180.75781C 123.11328 180.75781 119.75391 184.11328 119.75391 188.2539L119.75391 188.2539L119.75391 198.0039C 119.75391 202.14453 123.11328 205.5039 127.25391 205.5039C 131.39453 205.5039 134.7539 202.14453 134.7539 198.0039L134.7539 198.0039L134.7539 188.2539C 134.7539 184.11328 131.39453 180.75781 127.25391 180.75781z" stroke="none" fill="#000000" fill-rule="nonzero" />
        <path d="M127.25391 217.5C 123.11328 217.5 119.75391 220.85938 119.75391 225L119.75391 225L119.75391 234.7461C 119.75391 238.88672 123.11328 242.2461 127.25391 242.2461C 131.39453 242.2461 134.7539 238.88672 134.7539 234.7461L134.7539 234.7461L134.7539 225C 134.7539 220.85547 131.39453 217.5 127.25391 217.5z" stroke="none" fill="#000000" fill-rule="nonzero" />
        <path d="M127.25391 252.74219C 123.11328 252.74219 119.75391 256.10156 119.75391 260.2422L119.75391 260.2422L119.75391 269.98828C 119.75391 274.1289 123.11328 277.48828 127.25391 277.48828C 131.39453 277.48828 134.7539 274.1289 134.7539 269.98828L134.7539 269.98828L134.7539 260.2422C 134.7539 256.10156 131.39453 252.74219 127.25391 252.74219z" stroke="none" fill="#000000" fill-rule="nonzero" />
        <path d="M252.21094 97.890625C 253.53516 92.40625 254.20312 86.85156 254.20312 81.33984C 254.20312 42.835938 222.8789 11.511719 184.375 11.511719C 169.1836 11.511719 154.73828 16.308594 142.60547 25.386719C 131.08984 34 122.35547 46.20703 117.94141 59.828125C 117.9375 59.828125 117.92969 59.828125 117.92578 59.828125C 117.11719 59.773438 116.19531 59.710938 115.19531 59.710938C 92.484375 59.710938 72.18359 74.13281 64.015625 95.828125C 60.84375 95.25781 57.60547 94.96875 54.371094 94.96875C 24.390625 94.96875 0 119.50391 0 149.48438C 0 179.3789 24.242188 203.2539 54.101562 204.0039C 54.13672 204.0039 54.16797 204.0039 54.203125 204.0039L54.203125 204.0039L65.15625 204.0039C 69.296875 204.0039 72.65625 200.64453 72.65625 196.5039C 72.65625 192.36328 69.296875 189.0039 65.15625 189.0039L65.15625 189.0039L54.371094 189.0039C 32.660156 189.0039 14.996094 171.19922 14.996094 149.48438C 14.996094 127.77344 32.660156 110.03516 54.371094 110.03516C 57.035156 110.03516 59.70703 110.27344 62.304688 110.80859C 69.296875 112.24609 75.40234 108.98047 77.49609 102.69531C 83.07031 85.96484 98.22266 74.71484 115.19922 74.71484C 115.6875 74.71484 116.28516 74.75391 116.91406 74.79297C 117.65234 74.84375 118.49219 74.89844 119.390625 74.90625C 123.453125 74.96094 130.4414 73.71094 132.03516 65.08203C 132.04688 65.01172 132.0586 64.94531 132.07422 64.87891C 139.28906 41.921875 160.28516 26.507812 184.3789 26.507812C 214.60938 26.507812 239.20703 51.10547 239.20703 81.33984C 239.20703 86.52734 238.44531 91.78516 236.94531 96.95703C 235.73438 101.13281 236.6836 104.17578 237.6914 105.98828C 239.88672 109.92969 243.85547 111.03906 245.35156 111.45703L245.35156 111.45703L245.5586 111.515625C 262.3047 116.34375 274.0039 132.03906 274.0039 149.48438C 274.0039 171.19922 256.33984 189.0039 234.625 189.0039L234.625 189.0039L219.41797 189.0039C 215.27734 189.0039 211.91797 192.36328 211.91797 196.5039C 211.91797 200.64453 215.27734 204 219.41797 204L219.41797 204L234.625 204C 264.60938 204 289 179.46484 289 149.48438C 289 126.27344 274 105.33984 252.21094 97.890625z" stroke="none" fill="#000000" fill-rule="nonzero" />
	</g>
</g>
</svg>