<?xml version="1.0" standalone="no"?>
<!DOCTYPE svg PUBLIC "-//W3C//DTD SVG 1.0//EN" "http://www.w3.org/TR/2001/REC-SVG-20010904/DTD/svg10.dtd">
<svg xmlns="http://www.w3.org/2000/svg" xmlns:xlink="http://www.w3.org/1999/xlink" id="body_1" width="31" height="23">

<g transform="matrix(0.33695656 0 0 0.33695656 -0 2.9076087)">
	<g>
        <path d="M46.296875 24.671875C 45.89453 24.863281 45.5 25.082031 45.097656 25.320312C 43.835938 26.078125 42.632812 26.933594 41.503906 27.878906L41.503906 27.878906L38.92578 24.886719C 39.820312 24.054688 40.785156 23.304688 41.808594 22.644531C 42.621094 22.109375 43.472656 21.636719 44.351562 21.222656C 44.703125 21.042969 45.097656 20.878906 45.42578 20.722656C 44.066406 18.300781 42.09375 16.277344 39.70703 14.863281C 39.621094 14.816406 39.535156 14.765625 39.453125 14.710938C 39.132812 14.527344 38.804688 14.359375 38.476562 14.195312C 35.691406 12.875 32.597656 12.335938 29.53125 12.640625C 26.5 12.921875 23.613281 14.054688 21.195312 15.910156C 18.148438 18.324219 16.105469 21.785156 15.460938 25.628906L15.460938 25.628906L15.207031 26.972656L13.875 27.210938C 12.679688 27.410156 11.503906 27.726562 10.371094 28.152344C 9.429688 28.515625 8.535156 28.996094 7.714844 29.582031C 7.121094 30.007812 6.582031 30.511719 6.113281 31.078125C 4.75 32.75 4.023438 34.859375 4.070312 37.01953C 4.113281 39.242188 4.84375 41.398438 6.15625 43.1875C 6.644531 43.86328 7.210938 44.476562 7.851562 45.01172C 8.523438 45.566406 9.277344 46.01172 10.085938 46.335938C 10.957031 46.69922 11.867188 46.94922 12.800781 47.08203L12.800781 47.08203L51.570312 47.08203C 53.30078 46.6875 54.972656 46.058594 56.535156 45.214844C 57.859375 44.496094 59.023438 43.51172 59.94922 42.320312C 61.316406 40.289062 62.023438 37.878906 61.96875 35.429688C 62.046875 32.820312 61.382812 30.246094 60.054688 28.003906C 59.695312 27.457031 59.29297 26.941406 58.851562 26.457031C 57.070312 24.527344 54.558594 23.441406 51.933594 23.464844C 49.992188 23.460938 48.070312 23.871094 46.296875 24.671875zM39.640625 10.40625C 41.703125 6.417969 45.11328 3.292969 49.257812 1.585938C 54.226562 -0.476562 59.79297 -0.535156 64.80469 1.421875C 69.38281 3.207031 73.13281 6.644531 75.31641 11.058594C 76.16016 10.921875 77.015625 10.855469 77.87109 10.863281C 81.58203 10.832031 85.13281 12.378906 87.64844 15.117188C 88.24219 15.765625 88.78125 16.46875 89.25781 17.210938C 91.00391 20.097656 91.890625 23.425781 91.80859 26.800781C 91.85547 30.089844 90.875 33.3125 89.00391 36.01953C 87.75781 37.65625 86.17969 39.01172 84.375 39.996094C 82.41406 41.058594 80.3125 41.839844 78.13281 42.3125L78.13281 42.3125L77.69922 42.371094L64.35547 42.371094C 63.98828 43.16797 63.535156 43.91797 63.007812 44.617188C 61.76172 46.253906 60.1875 47.609375 58.382812 48.59375C 56.421875 49.65625 54.320312 50.4375 52.14453 50.910156L52.14453 50.910156L51.703125 50.960938L12.433594 50.960938C 11.097656 50.804688 9.789062 50.46875 8.542969 49.960938C 7.371094 49.484375 6.28125 48.828125 5.308594 48.015625C 4.421875 47.277344 3.632812 46.42578 2.960938 45.492188C 1.1875 43.023438 0.222656 40.066406 0.191406 37.027344C 0.144531 33.933594 1.203125 30.921875 3.175781 28.542969C 3.851562 27.726562 4.628906 27 5.488281 26.382812C 6.582031 25.597656 7.769531 24.960938 9.027344 24.484375C 9.988281 24.113281 10.972656 23.8125 11.972656 23.578125C 12.972656 19.308594 15.390625 15.507812 18.832031 12.796875C 21.835938 10.484375 25.429688 9.074219 29.203125 8.730469C 32.76953 8.378906 36.36328 8.957031 39.640625 10.40625zM65.546875 38.42578L77.47656 38.42578C 79.21094 38.035156 80.88281 37.40625 82.44141 36.558594C 83.77734 35.839844 84.94531 34.847656 85.86328 33.640625C 87.234375 31.609375 87.9375 29.199219 87.88672 26.75C 87.96484 24.140625 87.30078 21.566406 85.96875 19.324219C 85.61719 18.773438 85.21484 18.257812 84.76953 17.777344C 82.99219 15.84375 80.48047 14.757812 77.859375 14.789062C 75.93359 14.800781 74.03906 15.222656 72.28906 16.019531C 71.89453 16.222656 71.49219 16.4375 71.09375 16.671875C 69.828125 17.425781 68.625 18.28125 67.49609 19.226562L67.49609 19.226562L64.91406 16.238281C 65.80859 15.40625 66.77344 14.65625 67.80078 13.996094C 68.61328 13.460938 69.46094 12.988281 70.34375 12.574219C 70.69922 12.402344 71.08984 12.230469 71.41406 12.074219C 69.625 8.882812 66.78516 6.414062 63.378906 5.089844C 61.35547 4.300781 59.19922 3.90625 57.027344 3.933594C 54.875 3.957031 52.75 4.402344 50.765625 5.234375C 47.433594 6.609375 44.69922 9.132812 43.0625 12.351562C 45.71875 14.242188 47.871094 16.761719 49.316406 19.691406C 50.164062 19.554688 51.01953 19.492188 51.875 19.496094C 55.585938 19.460938 59.140625 21.007812 61.648438 23.75C 62.246094 24.398438 62.789062 25.097656 63.265625 25.835938C 65.00781 28.726562 65.890625 32.058594 65.80078 35.433594C 65.78906 36.4375 65.69922 37.4375 65.53516 38.42578z" stroke="none" fill="#000000" fill-rule="nonzero" />
	</g>
</g>
</svg>