<?xml version="1.0" standalone="no"?>
<!DOCTYPE svg PUBLIC "-//W3C//DTD SVG 1.0//EN" "http://www.w3.org/TR/2001/REC-SVG-20010904/DTD/svg10.dtd">
<svg xmlns="http://www.w3.org/2000/svg" xmlns:xlink="http://www.w3.org/1999/xlink" id="body_1" width="31" height="23">

<g transform="matrix(0.33695656 0 0 0.33695656 -0 0.8858696)">
	<g>
        <path d="M76.21875 43.453125C 75.47656 42.722656 75.46875 41.53125 76.19531 40.785156C 76.921875 40.04297 78.11328 40.035156 78.85156 40.765625L78.85156 40.765625L84.02734 45.882812C 84.765625 46.61328 84.77344 47.804688 84.046875 48.55078C 83.32422 49.29297 82.13281 49.30078 81.390625 48.570312L81.390625 48.570312L76.21875 43.453125zM49.4375 34.70703C 49.003906 34.914062 48.57422 35.148438 48.140625 35.402344C 46.851562 36.160156 45.58203 37.085938 44.285156 38.152344L44.285156 38.152344L41.515625 34.96875C 42.472656 34.07422 43.507812 33.265625 44.609375 32.55078C 45.484375 31.980469 46.398438 31.46875 47.339844 31.035156C 47.714844 30.847656 48.10547 30.667969 48.484375 30.5C 46.660156 27.257812 44.03125 24.929688 41.05078 23.496094C 38.070312 22.0625 34.73828 21.515625 31.496094 21.832031C 28.269531 22.144531 25.140625 23.316406 22.550781 25.328125C 19.554688 27.65625 17.28125 31.132812 16.410156 35.742188L16.410156 35.742188L16.140625 37.183594L14.710938 37.4375C 13.3125 37.6875 12.054688 38.023438 10.953125 38.453125C 9.890625 38.86328 8.9375 39.375 8.109375 39.976562C 7.441406 40.45703 6.871094 40.996094 6.386719 41.58203C 4.882812 43.390625 4.175781 45.660156 4.199219 47.95703C 4.214844 50.285156 4.972656 52.640625 6.371094 54.578125C 6.886719 55.296875 7.496094 55.953125 8.183594 56.53125L8.183594 56.53125L8.183594 56.535156C 8.871094 57.11328 9.65625 57.589844 10.550781 57.95703C 11.425781 58.316406 12.390625 58.578125 13.46875 58.73047L13.46875 58.73047L55.007812 58.73047C 57.027344 58.242188 58.816406 57.58203 60.328125 56.73047C 61.835938 55.882812 63.0625 54.85547 63.992188 53.625C 65.421875 51.71875 66.125 49.007812 66.15625 46.23828C 66.18359 43.32422 65.48047 40.402344 64.10156 38.277344C 63.70703 37.671875 63.273438 37.117188 62.816406 36.621094C 60.75 34.390625 58.121094 33.414062 55.402344 33.390625C 53.41797 33.371094 51.375 33.851562 49.4375 34.70703zM52.671875 29.382812C 53.585938 29.242188 54.503906 29.164062 55.410156 29.171875C 59.257812 29.195312 62.964844 30.578125 65.89453 33.73828C 66.50781 34.398438 67.08203 35.140625 67.62109 35.972656C 67.85547 36.335938 68.078125 36.710938 68.28125 37.109375C 68.55078 36.61328 68.78906 36.101562 68.984375 35.5625C 69.44141 34.33203 69.6875 32.98828 69.6875 31.582031C 69.6875 28.429688 68.41406 25.570312 66.34766 23.503906C 64.28906 21.441406 61.4375 20.15625 58.29297 20.15625C 56.30078 20.15625 54.4375 20.660156 52.828125 21.546875C 51.48047 22.289062 50.289062 23.292969 49.339844 24.511719C 50.621094 25.914062 51.75 27.542969 52.671875 29.382812zM69.95703 41.964844C 70.234375 43.367188 70.37109 44.816406 70.35547 46.257812C 70.31641 49.878906 69.33594 53.48828 67.35156 56.140625C 66.05859 57.875 64.38672 59.277344 62.390625 60.402344C 60.464844 61.484375 58.21875 62.30078 55.703125 62.88672L55.703125 62.88672L55.23047 62.94922L13.386719 62.94922L13.125 62.92578C 11.597656 62.73047 10.203125 62.371094 8.953125 61.851562C 7.667969 61.320312 6.511719 60.621094 5.496094 59.765625L5.496094 59.765625L5.480469 59.765625C 4.523438 58.960938 3.675781 58.046875 2.964844 57.054688C 1.054688 54.414062 0.0234375 51.183594 0 47.972656C -0.0234375 44.71875 0.988281 41.484375 3.160156 38.871094C 3.863281 38.023438 4.695312 37.242188 5.644531 36.55078C 6.753906 35.75 8.019531 35.066406 9.441406 34.51172C 10.429688 34.128906 11.476562 33.804688 12.59375 33.55078C 13.851562 28.535156 16.539062 24.667969 19.992188 21.980469C 23.21875 19.472656 27.109375 18.007812 31.109375 17.617188C 35.089844 17.234375 39.195312 17.910156 42.871094 19.683594C 44.03125 20.238281 45.148438 20.90625 46.203125 21.679688C 47.476562 20.125 49.039062 18.8125 50.820312 17.835938C 53.054688 16.613281 55.597656 15.921875 58.30078 15.921875C 62.61328 15.921875 66.515625 17.671875 69.34375 20.507812C 72.16797 23.339844 73.91797 27.257812 73.91797 31.582031C 73.91797 33.48828 73.57422 35.3125 72.953125 37.01172C 72.30078 38.765625 71.35156 40.382812 70.15234 41.76953C 70.08594 41.84375 70.02734 41.90625 69.95703 41.964844zM38.46875 10.960938C 37.726562 10.230469 37.71875 9.039062 38.445312 8.292969C 39.171875 7.550781 40.36328 7.542969 41.101562 8.273438L41.101562 8.273438L46.277344 13.390625C 47.01953 14.121094 47.027344 15.3125 46.30078 16.058594C 45.57422 16.800781 44.382812 16.808594 43.640625 16.078125zM58.804688 1.945312C 58.796875 0.90625 59.632812 0.0585938 60.67578 0.0507812C 61.70703 0.0429688 62.554688 0.886719 62.5625 1.929688L62.5625 1.929688L62.60547 9.21875C 62.61328 10.253906 61.773438 11.101562 60.734375 11.109375C 59.703125 11.117188 58.85547 10.277344 58.847656 9.234375zM79.75 9.089844C 80.49219 8.363281 81.68359 8.371094 82.41016 9.113281C 83.13672 9.855469 83.12891 11.050781 82.38672 11.777344L82.38672 11.777344L77.21484 16.898438C 76.47266 17.625 75.28125 17.617188 74.55469 16.875C 73.828125 16.132812 73.83594 14.9375 74.578125 14.210938zM90.11328 29.074219C 91.14453 29.066406 91.99219 29.910156 92 30.953125C 92.00781 31.988281 91.16797 32.835938 90.12891 32.84375L90.12891 32.84375L82.859375 32.890625C 81.82422 32.89453 80.98047 32.054688 80.97266 31.011719C 80.96484 29.976562 81.80469 29.128906 82.84375 29.121094z" stroke="none" fill="#000000" fill-rule="nonzero" />
	</g>
</g>
</svg>