<?xml version="1.0" standalone="no"?>
<!DOCTYPE svg PUBLIC "-//W3C//DTD SVG 1.0//EN" "http://www.w3.org/TR/2001/REC-SVG-20010904/DTD/svg10.dtd">
<svg xmlns="http://www.w3.org/2000/svg" xmlns:xlink="http://www.w3.org/1999/xlink" id="body_1" width="31" height="23">

<g transform="matrix(0.25555557 0 0 0.25555557 3.7444444 -0)">
	<g>
        <path d="M76.17578 43.339844C 75.43359 42.61328 75.42969 41.421875 76.15234 40.679688C 76.87891 39.9375 78.06641 39.929688 78.80859 40.65625L78.80859 40.65625L83.97266 45.76953C 84.71484 46.496094 84.72266 47.6875 83.99609 48.429688C 83.26953 49.171875 82.08203 49.179688 81.33984 48.453125L81.33984 48.453125L76.17578 43.339844zM35.710938 74.36719L40.566406 57.007812L53 57.007812L48.660156 66.10156L56.035156 66.24219L38.066406 90L41.523438 74.36719zM25.992188 53.722656C 26.835938 57.664062 29.386719 59.63672 29.386719 61.609375C 29.386719 63.58203 28.542969 65.55078 25.992188 65.55078C 23.449219 65.55078 22.597656 63.58203 22.597656 61.609375C 22.597656 59.63672 25.140625 57.664062 25.992188 53.722656zM16.699219 64.91406C 17.671875 69.44922 20.601562 71.72266 20.601562 73.98828C 20.601562 76.25781 19.628906 78.52344 16.699219 78.52344C 13.777344 78.52344 12.796875 76.25 12.796875 73.98828C 12.804688 71.72266 15.726562 69.44922 16.699219 64.91406zM28.191406 69.72266C 29.164062 74.25781 32.09375 76.52734 32.09375 78.79297C 32.09375 81.0625 31.121094 83.328125 28.191406 83.328125C 25.265625 83.328125 24.289062 81.05469 24.289062 78.79297C 24.289062 76.51953 27.21875 74.25781 28.191406 69.72266zM13.695312 58.609375C 14.84375 58.753906 15.660156 59.808594 15.511719 60.964844C 15.367188 62.117188 14.3125 62.9375 13.164062 62.785156C 11.636719 62.589844 10.246094 62.23047 9 61.714844C 7.710938 61.183594 6.5625 60.484375 5.542969 59.628906L5.542969 59.628906L5.535156 59.628906C 4.578125 58.828125 3.734375 57.914062 3.023438 56.921875C 1.117188 54.285156 0.0859375 51.0625 0.0625 47.851562C 0.0429688 44.60547 1.050781 41.375 3.21875 38.765625C 3.921875 37.91797 4.75 37.140625 5.703125 36.44922C 6.808594 35.648438 8.070312 34.964844 9.492188 34.410156C 10.480469 34.027344 11.527344 33.70703 12.640625 33.44922C 13.894531 28.441406 16.578125 24.582031 20.027344 21.898438C 23.25 19.394531 27.128906 17.933594 31.128906 17.542969C 35.10547 17.160156 39.203125 17.835938 42.875 19.605469C 44.035156 20.160156 45.148438 20.828125 46.203125 21.597656C 47.472656 20.046875 49.035156 18.734375 50.816406 17.761719C 53.04297 16.539062 55.585938 15.847656 58.285156 15.847656C 62.589844 15.847656 66.484375 17.59375 69.3125 20.429688C 72.12891 23.253906 73.87891 27.167969 73.87891 31.488281C 73.87891 33.390625 73.53516 35.210938 72.91406 36.90625C 72.265625 38.660156 71.31641 40.273438 70.12109 41.660156C 70.05859 41.726562 70 41.789062 69.93359 41.847656C 70.21094 43.25 70.34375 44.695312 70.328125 46.13672C 70.29297 49.75 69.3125 53.35547 67.33203 56C 66.35156 57.3125 65.15625 58.4375 63.765625 59.390625C 62.41797 60.320312 60.878906 61.09375 59.160156 61.714844C 58.066406 62.11328 56.86328 61.54297 56.46875 60.453125C 56.070312 59.359375 56.640625 58.152344 57.722656 57.757812C 59.097656 57.253906 60.32422 56.640625 61.38672 55.910156C 62.410156 55.20703 63.26953 54.398438 63.964844 53.476562C 65.39453 51.570312 66.09766 48.86328 66.125 46.097656C 66.15625 43.191406 65.453125 40.273438 64.078125 38.152344C 63.683594 37.54297 63.257812 36.98828 62.79297 36.496094C 60.73047 34.26953 58.10547 33.29297 55.390625 33.26953C 53.41797 33.257812 51.375 33.734375 49.4375 34.589844C 49.003906 34.80078 48.578125 35.03125 48.152344 35.289062C 46.867188 36.046875 45.597656 36.96875 44.304688 38.03125L44.304688 38.03125L41.535156 34.851562C 42.492188 33.96875 43.523438 33.152344 44.625 32.4375C 45.5 31.871094 46.410156 31.359375 47.351562 30.925781C 47.726562 30.738281 48.117188 30.558594 48.496094 30.390625C 46.671875 27.152344 44.046875 24.828125 41.07422 23.398438C 38.097656 21.964844 34.76953 21.417969 31.53125 21.734375C 28.308594 22.046875 25.183594 23.21875 22.597656 25.226562C 19.609375 27.550781 17.335938 31.023438 16.46875 35.625L16.46875 35.625L16.199219 37.066406L14.769531 37.320312C 13.371094 37.566406 12.117188 37.902344 11.015625 38.33203C 9.957031 38.742188 9.007812 39.253906 8.175781 39.851562C 7.511719 40.33203 6.941406 40.871094 6.457031 41.45703C 4.953125 43.265625 4.25 45.527344 4.273438 47.82422C 4.289062 50.148438 5.042969 52.5 6.441406 54.433594C 6.957031 55.15625 7.5625 55.808594 8.25 56.382812L8.25 56.382812L8.25 56.390625C 8.9375 56.96875 9.722656 57.441406 10.613281 57.808594C 11.519531 58.19922 12.550781 58.46875 13.695312 58.609375zM49.335938 24.425781C 50.61328 25.835938 51.734375 27.453125 52.660156 29.289062C 53.57422 29.148438 54.492188 29.074219 55.398438 29.082031C 59.242188 29.101562 62.941406 30.480469 65.86328 33.63672C 66.47656 34.296875 67.05469 35.039062 67.59375 35.871094C 67.82422 36.23047 68.046875 36.60547 68.25 36.996094C 68.51953 36.503906 68.75781 35.992188 68.953125 35.453125C 69.41016 34.222656 69.65625 32.882812 69.65625 31.480469C 69.65625 28.332031 68.38672 25.472656 66.32031 23.414062C 64.265625 21.351562 61.41797 20.070312 58.277344 20.070312C 56.289062 20.070312 54.42578 20.570312 52.820312 21.457031C 51.472656 22.207031 50.29297 23.21875 49.335938 24.425781zM38.48047 10.894531C 37.73828 10.164062 37.73047 8.972656 38.45703 8.230469C 39.179688 7.488281 40.371094 7.480469 41.109375 8.210938L41.109375 8.210938L46.277344 13.320312C 47.015625 14.050781 47.023438 15.242188 46.30078 15.984375C 45.57422 16.726562 44.38672 16.734375 43.64453 16.003906zM58.785156 1.890625C 58.777344 0.855469 59.61328 0.0078125 60.652344 0C 61.6875 -0.0078125 62.53125 0.832031 62.53125 1.875L62.53125 1.875L62.57422 9.152344C 62.58203 10.1875 61.746094 11.035156 60.70703 11.042969C 59.67578 11.050781 58.828125 10.210938 58.82422 9.167969zM79.703125 9.027344C 80.44531 8.300781 81.63281 8.304688 82.359375 9.046875C 83.08203 9.789062 83.078125 10.984375 82.33594 11.710938L82.33594 11.710938L77.16797 16.824219C 76.42969 17.550781 75.24219 17.542969 74.515625 16.800781C 73.78906 16.058594 73.796875 14.867188 74.53906 14.140625zM90.05078 28.984375C 91.08203 28.976562 91.92969 29.816406 91.92969 30.855469C 91.9375 31.890625 91.09766 32.73828 90.05859 32.73828L90.05859 32.73828L82.80078 32.785156C 81.76953 32.79297 80.921875 31.953125 80.921875 30.910156C 80.91406 29.875 81.75391 29.027344 82.79297 29.019531z" stroke="none" fill="#000000" fill-rule="nonzero" />
	</g>
</g>
</svg>