<?xml version="1.0" standalone="no"?>
<!DOCTYPE svg PUBLIC "-//W3C//DTD SVG 1.0//EN" "http://www.w3.org/TR/2001/REC-SVG-20010904/DTD/svg10.dtd">
<svg xmlns="http://www.w3.org/2000/svg" xmlns:xlink="http://www.w3.org/1999/xlink" id="body_1" width="31" height="23">

<g transform="matrix(0.27058825 0 0 0.27058825 3.1882353 -0)">
	<g>
        <path d="M29.285156 72.79297C 29.589844 71.19922 31.113281 70.15625 32.691406 70.46094C 34.273438 70.765625 35.308594 72.30078 35.007812 73.89453L35.007812 73.89453L34.007812 79.10156C 33.70703 80.69531 32.183594 81.73828 30.601562 81.43359C 29.019531 81.12891 27.984375 79.59375 28.289062 78L28.289062 78L29.285156 72.79297zM17.714844 53.472656C 19.199219 53.660156 20.25 55.03125 20.0625 56.527344C 19.878906 58.023438 18.519531 59.08203 17.035156 58.89453C 15.0625 58.64453 13.273438 58.171875 11.648438 57.496094C 9.96875 56.796875 8.484375 55.89453 7.175781 54.79297C 5.933594 53.75 4.847656 52.566406 3.925781 51.277344C 1.457031 47.851562 0.125 43.664062 0.0976562 39.496094C 0.0664062 35.28125 1.367188 31.085938 4.175781 27.691406C 5.085938 26.589844 6.15625 25.574219 7.382812 24.679688C 8.808594 23.640625 10.441406 22.761719 12.289062 22.039062C 13.5625 21.539062 14.921875 21.121094 16.355469 20.785156C 17.980469 14.277344 21.445312 9.265625 25.902344 5.785156C 30.070312 2.53125 35.085938 0.632812 40.253906 0.132812C 45.398438 -0.363281 50.6875 0.515625 55.441406 2.816406C 60.628906 5.324219 65.14844 9.503906 68.08203 15.378906C 69.265625 15.191406 70.44922 15.097656 71.625 15.109375C 76.58984 15.148438 81.37891 16.9375 85.14844 21.03125C 85.9375 21.886719 86.68359 22.855469 87.37891 23.9375C 89.74219 27.601562 90.95703 32.492188 90.90234 37.28125C 90.85156 41.98047 89.59766 46.660156 87.02344 50.109375C 85.34766 52.347656 83.19531 54.179688 80.61719 55.632812C 78.13281 57.035156 75.23828 58.097656 71.984375 58.859375C 70.52344 59.195312 69.06641 58.277344 68.734375 56.804688C 68.40234 55.328125 69.30859 53.86328 70.77344 53.527344C 73.515625 52.88672 75.92578 52.007812 77.95703 50.859375C 79.89844 49.765625 81.48828 48.433594 82.67969 46.83203C 84.52734 44.351562 85.43359 40.84375 85.47266 37.246094C 85.515625 33.46875 84.60156 29.679688 82.82031 26.921875C 82.30859 26.132812 81.74609 25.410156 81.15625 24.769531C 78.48828 21.875 75.10547 20.609375 71.58594 20.585938C 69.03125 20.570312 66.39844 21.1875 63.89453 22.304688C 63.339844 22.582031 62.785156 22.878906 62.23047 23.207031C 60.566406 24.191406 58.92578 25.390625 57.25 26.765625L57.25 26.765625L53.671875 22.640625C 54.90625 21.488281 56.246094 20.4375 57.664062 19.503906C 58.79297 18.761719 59.976562 18.105469 61.1875 17.53125C 61.67578 17.285156 62.171875 17.054688 62.66797 16.839844C 60.308594 12.632812 56.91797 9.613281 53.07422 7.753906C 49.23047 5.898438 44.929688 5.183594 40.742188 5.59375C 36.58203 5.996094 32.539062 7.523438 29.199219 10.136719C 25.332031 13.160156 22.398438 17.664062 21.269531 23.644531L21.269531 23.644531L20.914062 25.515625L19.066406 25.84375C 17.253906 26.164062 15.636719 26.601562 14.21875 27.160156C 12.84375 27.699219 11.617188 28.359375 10.546875 29.144531C 9.6875 29.769531 8.949219 30.46875 8.320312 31.226562C 6.378906 33.57422 5.476562 36.515625 5.5 39.496094C 5.519531 42.51953 6.496094 45.570312 8.300781 48.08203C 8.972656 49.01172 9.746094 49.871094 10.632812 50.61328C 11.535156 51.367188 12.546875 51.984375 13.6875 52.460938C 14.898438 52.9375 16.234375 53.289062 17.714844 53.472656zM29.589844 40.054688C 29.890625 38.460938 31.414062 37.41797 32.996094 37.722656C 34.578125 38.027344 35.61328 39.5625 35.308594 41.15625L35.308594 41.15625L34.3125 46.36328C 34.007812 47.95703 32.484375 49 30.90625 48.691406C 29.324219 48.38672 28.289062 46.851562 28.59375 45.257812zM45.01172 42.742188C 45.316406 41.148438 46.835938 40.10547 48.41797 40.410156C 50 40.714844 51.035156 42.25 50.73047 43.84375L50.73047 43.84375L49.734375 49.05078C 49.429688 50.64453 47.910156 51.6875 46.328125 51.382812C 44.746094 51.07422 43.710938 49.54297 44.015625 47.94922zM59.734375 46.859375C 60.035156 45.265625 61.558594 44.222656 63.140625 44.53125C 64.72266 44.835938 65.75391 46.367188 65.453125 47.960938L65.453125 47.960938L64.45703 53.16797C 64.15234 54.76172 62.628906 55.804688 61.046875 55.5C 59.46875 55.195312 58.433594 53.660156 58.734375 52.066406zM55.757812 63.296875C 56.058594 61.703125 57.58203 60.660156 59.164062 60.964844C 60.746094 61.273438 61.78125 62.804688 61.476562 64.39844L61.476562 64.39844L60.48047 69.60547C 60.17578 71.19922 58.652344 72.24219 57.07422 71.9375C 55.492188 71.63281 54.45703 70.09766 54.757812 68.50391zM40.609375 59.773438C 40.910156 58.179688 42.433594 57.13672 44.015625 57.445312C 45.597656 57.75 46.628906 59.285156 46.328125 60.878906L46.328125 60.878906L45.328125 66.08203C 45.027344 67.67578 43.503906 68.71875 41.921875 68.41406C 40.34375 68.109375 39.308594 66.57422 39.609375 64.98047zM26.125 56.253906C 26.425781 54.660156 27.949219 53.617188 29.53125 53.921875C 31.113281 54.226562 32.14453 55.76172 31.84375 57.35547L31.84375 57.35547L30.847656 62.558594C 30.542969 64.15234 29.019531 65.19531 27.4375 64.890625C 25.859375 64.58594 24.824219 63.05078 25.125 61.45703zM43.76953 76.30859C 44.07422 74.71484 45.597656 73.671875 47.17578 73.97656C 48.757812 74.28125 49.79297 75.81641 49.492188 77.41016L49.492188 77.41016L48.492188 82.61719C 48.191406 84.21094 46.66797 85.25391 45.085938 84.94922C 43.503906 84.640625 42.46875 83.109375 42.773438 81.515625z" stroke="none" fill="#000000" fill-rule="nonzero" />
	</g>
</g>
</svg>