<?xml version="1.0" standalone="no"?>
<!DOCTYPE svg PUBLIC "-//W3C//DTD SVG 1.0//EN" "http://www.w3.org/TR/2001/REC-SVG-20010904/DTD/svg10.dtd">
<svg xmlns="http://www.w3.org/2000/svg" xmlns:xlink="http://www.w3.org/1999/xlink" id="body_1" width="31" height="23">

<g transform="matrix(0.26136363 0 0 0.26136363 3.4772727 -0)">
	<g>
        <path d="M44.64453 46.36328L61.55078 46.36328L55.65625 57.835938L65.69141 58.01953L41.253906 87.984375L45.95703 68.27344L38.04297 68.27344L44.64453 46.36328zM33.09375 54.05078C 34.61328 54.05078 35.847656 55.29297 35.847656 56.820312C 35.847656 58.351562 34.61328 59.59375 33.09375 59.59375L33.09375 59.59375L17.503906 59.59375L17.160156 59.5625C 15.160156 59.304688 13.347656 58.83203 11.703125 58.14453C 10.015625 57.445312 8.511719 56.535156 7.179688 55.414062L7.179688 55.414062L7.171875 55.414062C 5.914062 54.359375 4.8125 53.164062 3.878906 51.859375C 1.378906 48.398438 0.03125 44.164062 0 39.94922C -0.03125 35.6875 1.289062 31.449219 4.132812 28.015625C 5.054688 26.902344 6.140625 25.878906 7.382812 24.976562C 8.828125 23.921875 10.480469 23.03125 12.351562 22.300781C 13.640625 21.796875 15.019531 21.375 16.472656 21.039062C 18.117188 14.457031 21.628906 9.390625 26.144531 5.875C 30.367188 2.585938 35.44922 0.664062 40.683594 0.160156C 45.89453 -0.34375 51.257812 0.542969 56.070312 2.871094C 61.585938 5.535156 66.125 10.066406 68.87891 15.570312C 70.078125 15.382812 71.27734 15.285156 72.46484 15.300781C 77.49609 15.339844 82.34766 17.144531 86.16797 21.285156C 90.14453 25.59375 92.06641 31.929688 92 37.714844C 91.94922 42.464844 90.67578 47.191406 88.07031 50.679688C 86.37109 52.953125 84.19141 54.796875 81.578125 56.265625C 79.0625 57.679688 76.12891 58.757812 72.83203 59.523438C 71.35156 59.86328 69.875 58.9375 69.53906 57.445312C 69.203125 55.95703 70.125 54.472656 71.60547 54.132812C 74.38281 53.484375 76.82422 52.597656 78.88281 51.4375C 80.85156 50.33203 82.46094 48.984375 83.66797 47.367188C 85.53906 44.859375 86.46094 41.3125 86.49609 37.67578C 86.54297 33.859375 85.61328 30.027344 83.80859 27.242188C 83.29297 26.433594 82.73047 25.710938 82.125 25.066406C 79.421875 22.136719 75.99219 20.855469 72.42969 20.835938C 69.83984 20.820312 67.171875 21.445312 64.63672 22.574219C 64.07422 22.851562 63.503906 23.160156 62.94922 23.484375C 61.265625 24.476562 59.597656 25.691406 57.90625 27.082031L57.90625 27.082031L54.28125 22.910156C 55.53125 21.746094 56.88672 20.683594 58.32422 19.742188C 59.46875 18.988281 60.66797 18.328125 61.89453 17.746094C 62.390625 17.5 62.890625 17.265625 63.390625 17.046875C 61.003906 12.792969 57.566406 9.746094 53.67578 7.863281C 49.78125 5.988281 45.421875 5.265625 41.179688 5.679688C 36.964844 6.085938 32.867188 7.628906 29.484375 10.269531C 25.566406 13.328125 22.59375 17.882812 21.449219 23.929688L21.449219 23.929688L21.089844 25.816406L19.21875 26.148438C 17.386719 26.472656 15.746094 26.917969 14.308594 27.480469C 12.914062 28.023438 11.671875 28.695312 10.585938 29.484375C 9.71875 30.117188 8.96875 30.824219 8.332031 31.59375C 6.363281 33.964844 5.449219 36.9375 5.472656 39.94922C 5.496094 43.007812 6.484375 46.09375 8.3125 48.628906C 8.992188 49.570312 9.777344 50.4375 10.675781 51.191406L10.675781 51.191406L10.667969 51.19922C 11.566406 51.94922 12.601562 52.57422 13.761719 53.058594C 14.90625 53.53125 16.171875 53.871094 17.570312 54.066406L17.570312 54.066406L33.09375 54.066406zM42.726562 64.46875L47.660156 50.347656L55.320312 50.347656L51.339844 61.097656L57.351562 61.203125L47.234375 76.42578L50.253906 64.46875z" stroke="none" fill="#000000" fill-rule="nonzero" />
	</g>
</g>
</svg>